<svg width="156" height="12" viewBox="0 0 156 12" fill="none" xmlns="http://www.w3.org/2000/svg">
<path d="M11.7396 5.21011C11.9758 4.97992 12.0592 4.64208 11.9573 4.32802C11.8552 4.01397 11.5892 3.78978 11.2624 3.74221L8.35684 3.32002C8.23309 3.302 8.12617 3.22439 8.0709 3.11218L6.77192 0.47961C6.62606 0.183818 6.33003 0 6.00012 0C5.67045 0 5.37442 0.183818 5.22856 0.47961L3.92934 3.11242C3.87407 3.22463 3.76691 3.30224 3.64316 3.32027L0.737627 3.74245C0.411079 3.78978 0.144842 4.01421 0.042721 4.32826C-0.0591601 4.64232 0.024219 4.98016 0.26042 5.21035L2.36268 7.25951C2.4523 7.34697 2.49339 7.47288 2.47225 7.59591L1.9763 10.4894C1.93233 10.7441 1.99913 10.9919 2.16396 11.1872C2.42011 11.4917 2.86728 11.5844 3.22482 11.3965L5.82327 10.0302C5.93188 9.97329 6.0686 9.97377 6.17697 10.0302L8.77566 11.3965C8.90205 11.4631 9.03685 11.4967 9.17597 11.4967C9.42996 11.4967 9.67072 11.3838 9.83628 11.1872C10.0014 10.9919 10.0679 10.7436 10.0239 10.4894L9.52775 7.59591C9.50661 7.47264 9.5477 7.34697 9.63732 7.25951L11.7396 5.21011Z" fill="#9D2929"/>
<path d="M27.7396 5.21011C27.9758 4.97992 28.0592 4.64208 27.9573 4.32802C27.8552 4.01397 27.5892 3.78978 27.2624 3.74221L24.3568 3.32002C24.2331 3.302 24.1262 3.22439 24.0709 3.11218L22.7719 0.47961C22.6261 0.183818 22.33 0 22.0001 0C21.6704 0 21.3744 0.183818 21.2286 0.47961L19.9293 3.11242C19.8741 3.22463 19.7669 3.30224 19.6432 3.32027L16.7376 3.74245C16.4111 3.78978 16.1448 4.01421 16.0427 4.32826C15.9408 4.64232 16.0242 4.98016 16.2604 5.21035L18.3627 7.25951C18.4523 7.34697 18.4934 7.47288 18.4722 7.59591L17.9763 10.4894C17.9323 10.7441 17.9991 10.9919 18.164 11.1872C18.4201 11.4917 18.8673 11.5844 19.2248 11.3965L21.8233 10.0302C21.9319 9.97329 22.0686 9.97377 22.177 10.0302L24.7757 11.3965C24.902 11.4631 25.0368 11.4967 25.176 11.4967C25.43 11.4967 25.6707 11.3838 25.8363 11.1872C26.0014 10.9919 26.0679 10.7436 26.0239 10.4894L25.5278 7.59591C25.5066 7.47264 25.5477 7.34697 25.6373 7.25951L27.7396 5.21011Z" fill="#9D2929"/>
<path d="M43.7396 5.21011C43.9758 4.97992 44.0592 4.64208 43.9573 4.32802C43.8552 4.01397 43.5892 3.78978 43.2624 3.74221L40.3568 3.32002C40.2331 3.302 40.1262 3.22439 40.0709 3.11218L38.7719 0.47961C38.6261 0.183818 38.33 0 38.0001 0C37.6704 0 37.3744 0.183818 37.2286 0.47961L35.9293 3.11242C35.8741 3.22463 35.7669 3.30224 35.6432 3.32027L32.7376 3.74245C32.4111 3.78978 32.1448 4.01421 32.0427 4.32826C31.9408 4.64232 32.0242 4.98016 32.2604 5.21035L34.3627 7.25951C34.4523 7.34697 34.4934 7.47288 34.4722 7.59591L33.9763 10.4894C33.9323 10.7441 33.9991 10.9919 34.164 11.1872C34.4201 11.4917 34.8673 11.5844 35.2248 11.3965L37.8233 10.0302C37.9319 9.97329 38.0686 9.97377 38.177 10.0302L40.7757 11.3965C40.902 11.4631 41.0368 11.4967 41.176 11.4967C41.43 11.4967 41.6707 11.3838 41.8363 11.1872C42.0014 10.9919 42.0679 10.7436 42.0239 10.4894L41.5278 7.59591C41.5066 7.47264 41.5477 7.34697 41.6373 7.25951L43.7396 5.21011Z" fill="#9D2929"/>
<path d="M59.7396 5.21011C59.9758 4.97992 60.0592 4.64208 59.9573 4.32802C59.8552 4.01397 59.5892 3.78978 59.2624 3.74221L56.3568 3.32002C56.2331 3.302 56.1262 3.22439 56.0709 3.11218L54.7719 0.47961C54.6261 0.183818 54.33 0 54.0001 0C53.6704 0 53.3744 0.183818 53.2286 0.47961L51.9293 3.11242C51.8741 3.22463 51.7669 3.30224 51.6432 3.32027L48.7376 3.74245C48.4111 3.78978 48.1448 4.01421 48.0427 4.32826C47.9408 4.64232 48.0242 4.98016 48.2604 5.21035L50.3627 7.25951C50.4523 7.34697 50.4934 7.47288 50.4722 7.59591L49.9763 10.4894C49.9323 10.7441 49.9991 10.9919 50.164 11.1872C50.4201 11.4917 50.8673 11.5844 51.2248 11.3965L53.8233 10.0302C53.9319 9.97329 54.0686 9.97377 54.177 10.0302L56.7757 11.3965C56.902 11.4631 57.0368 11.4967 57.176 11.4967C57.43 11.4967 57.6707 11.3838 57.8363 11.1872C58.0014 10.9919 58.0679 10.7436 58.0239 10.4894L57.5278 7.59591C57.5066 7.47264 57.5477 7.34697 57.6373 7.25951L59.7396 5.21011Z" fill="#9D2929"/>
<path d="M75.7396 5.21011C75.9758 4.97992 76.0592 4.64208 75.9573 4.32802C75.8552 4.01397 75.5892 3.78978 75.2624 3.74221L72.3568 3.32002C72.2331 3.302 72.1262 3.22439 72.0709 3.11218L70.7719 0.47961C70.6261 0.183818 70.33 0 70.0001 0C69.6704 0 69.3744 0.183818 69.2286 0.47961L67.9293 3.11242C67.8741 3.22463 67.7669 3.30224 67.6432 3.32027L64.7376 3.74245C64.4111 3.78978 64.1448 4.01421 64.0427 4.32826C63.9408 4.64232 64.0242 4.98016 64.2604 5.21035L66.3627 7.25951C66.4523 7.34697 66.4934 7.47288 66.4722 7.59591L65.9763 10.4894C65.9323 10.7441 65.9991 10.9919 66.164 11.1872C66.4201 11.4917 66.8673 11.5844 67.2248 11.3965L69.8233 10.0302C69.9319 9.97329 70.0686 9.97377 70.177 10.0302L72.7757 11.3965C72.902 11.4631 73.0368 11.4967 73.176 11.4967C73.43 11.4967 73.6707 11.3838 73.8363 11.1872C74.0014 10.9919 74.0679 10.7436 74.0239 10.4894L73.5278 7.59591C73.5066 7.47264 73.5477 7.34697 73.6373 7.25951L75.7396 5.21011Z" fill="#9D2929"/>
<path d="M91.7396 5.21011C91.9758 4.97992 92.0592 4.64208 91.9573 4.32802C91.8552 4.01397 91.5892 3.78978 91.2624 3.74221L88.3568 3.32002C88.2331 3.302 88.1262 3.22439 88.0709 3.11218L86.7719 0.47961C86.6261 0.183818 86.33 0 86.0001 0C85.6704 0 85.3744 0.183818 85.2286 0.47961L83.9293 3.11242C83.8741 3.22463 83.7669 3.30224 83.6432 3.32027L80.7376 3.74245C80.4111 3.78978 80.1448 4.01421 80.0427 4.32826C79.9408 4.64232 80.0242 4.98016 80.2604 5.21035L82.3627 7.25951C82.4523 7.34697 82.4934 7.47288 82.4722 7.59591L81.9763 10.4894C81.9323 10.7441 81.9991 10.9919 82.164 11.1872C82.4201 11.4917 82.8673 11.5844 83.2248 11.3965L85.8233 10.0302C85.9319 9.97329 86.0686 9.97377 86.177 10.0302L88.7757 11.3965C88.902 11.4631 89.0368 11.4967 89.176 11.4967C89.43 11.4967 89.6707 11.3838 89.8363 11.1872C90.0014 10.9919 90.0679 10.7436 90.0239 10.4894L89.5278 7.59591C89.5066 7.47264 89.5477 7.34697 89.6373 7.25951L91.7396 5.21011Z" fill="#9D2929"/>
<path d="M107.74 5.21011C107.976 4.97992 108.059 4.64208 107.957 4.32802C107.855 4.01397 107.589 3.78978 107.262 3.74221L104.357 3.32002C104.233 3.302 104.126 3.22439 104.071 3.11218L102.772 0.47961C102.626 0.183818 102.33 0 102 0C101.67 0 101.374 0.183818 101.229 0.47961L99.9293 3.11242C99.8741 3.22463 99.7669 3.30224 99.6432 3.32027L96.7376 3.74245C96.4111 3.78978 96.1448 4.01421 96.0427 4.32826C95.9408 4.64232 96.0242 4.98016 96.2604 5.21035L98.3627 7.25951C98.4523 7.34697 98.4934 7.47288 98.4722 7.59591L97.9763 10.4894C97.9323 10.7441 97.9991 10.9919 98.164 11.1872C98.4201 11.4917 98.8673 11.5844 99.2248 11.3965L101.823 10.0302C101.932 9.97329 102.069 9.97377 102.177 10.0302L104.776 11.3965C104.902 11.4631 105.037 11.4967 105.176 11.4967C105.43 11.4967 105.671 11.3838 105.836 11.1872C106.001 10.9919 106.068 10.7436 106.024 10.4894L105.528 7.59591C105.507 7.47264 105.548 7.34697 105.637 7.25951L107.74 5.21011Z" fill="#9D2929"/>
<path d="M123.74 5.21046C123.976 4.98026 124.059 4.64241 123.957 4.32835C123.855 4.01429 123.589 3.7901 123.262 3.74252L120.357 3.32033C120.233 3.30231 120.126 3.2247 120.071 3.11248L118.772 0.479619C118.626 0.183822 118.33 0 118 0C117.67 0 117.374 0.183822 117.228 0.479619L115.929 3.11248C115.874 3.2247 115.767 3.30231 115.643 3.32033L112.737 3.74276C112.411 3.7901 112.145 4.01429 112.043 4.32835C111.941 4.64241 112.024 4.98026 112.26 5.21046L114.363 7.25965C114.452 7.34712 114.493 7.47303 114.472 7.59606L113.976 10.4899C113.92 10.815 114.051 11.1372 114.318 11.3314C114.585 11.5258 114.932 11.551 115.225 11.397L117.823 10.0307C117.934 9.97253 118.066 9.97253 118.177 10.0307L120.776 11.397C120.902 11.4638 121.04 11.4967 121.177 11.4967C121.354 11.4967 121.531 11.4412 121.682 11.3314C121.949 11.1372 122.08 10.815 122.024 10.4899L121.528 7.5963C121.507 7.47303 121.548 7.34736 121.637 7.25989L123.74 5.21046ZM121.054 7.67752L121.551 10.5711C121.576 10.7167 121.519 10.8558 121.399 10.9428C121.279 11.0296 121.13 11.0401 120.999 10.9719L118.401 9.60537C118.275 9.53977 118.137 9.50661 118 9.50661C117.863 9.50661 117.725 9.53977 117.599 9.60561L115.001 10.9719C114.87 11.0401 114.721 11.0296 114.601 10.9428C114.481 10.8558 114.425 10.7169 114.45 10.5711L114.946 7.67752C114.994 7.3983 114.901 7.11331 114.698 6.9158L112.596 4.86636C112.49 4.76303 112.454 4.61742 112.5 4.47685C112.545 4.33604 112.66 4.23944 112.806 4.21806L115.712 3.79587C115.992 3.75526 116.235 3.57936 116.36 3.32514L117.659 0.692276C117.724 0.559636 117.852 0.480581 118 0.480581C118.148 0.480581 118.275 0.559636 118.341 0.692276L119.64 3.32514C119.765 3.57936 120.007 3.75526 120.288 3.79587L123.193 4.21806C123.34 4.23944 123.454 4.33604 123.5 4.47685C123.546 4.61742 123.51 4.76303 123.404 4.86636L121.302 6.91556C121.099 7.11331 121.006 7.39806 121.054 7.67752Z" fill="#9D2929"/>
<path d="M139.74 5.21046C139.976 4.98026 140.059 4.64241 139.957 4.32835C139.855 4.01429 139.589 3.7901 139.262 3.74252L136.357 3.32033C136.233 3.30231 136.126 3.2247 136.071 3.11248L134.772 0.479619C134.626 0.183822 134.33 0 134 0C133.67 0 133.374 0.183822 133.228 0.479619L131.929 3.11248C131.874 3.2247 131.767 3.30231 131.643 3.32033L128.737 3.74276C128.411 3.7901 128.145 4.01429 128.043 4.32835C127.941 4.64241 128.024 4.98026 128.26 5.21046L130.363 7.25965C130.452 7.34712 130.493 7.47303 130.472 7.59606L129.976 10.4899C129.92 10.815 130.051 11.1372 130.318 11.3314C130.585 11.5258 130.932 11.551 131.225 11.397L133.823 10.0307C133.934 9.97253 134.066 9.97253 134.177 10.0307L136.776 11.397C136.902 11.4638 137.04 11.4967 137.177 11.4967C137.354 11.4967 137.531 11.4412 137.682 11.3314C137.949 11.1372 138.08 10.815 138.024 10.4899L137.528 7.5963C137.507 7.47303 137.548 7.34736 137.637 7.25989L139.74 5.21046ZM137.054 7.67752L137.551 10.5711C137.576 10.7167 137.519 10.8558 137.399 10.9428C137.279 11.0296 137.13 11.0401 136.999 10.9719L134.401 9.60537C134.275 9.53977 134.137 9.50661 134 9.50661C133.863 9.50661 133.725 9.53977 133.599 9.60561L131.001 10.9719C130.87 11.0401 130.721 11.0296 130.601 10.9428C130.481 10.8558 130.425 10.7169 130.45 10.5711L130.946 7.67752C130.994 7.3983 130.901 7.11331 130.698 6.9158L128.596 4.86636C128.49 4.76303 128.454 4.61742 128.5 4.47685C128.545 4.33604 128.66 4.23944 128.806 4.21806L131.712 3.79587C131.992 3.75526 132.235 3.57936 132.36 3.32514L133.659 0.692276C133.724 0.559636 133.852 0.480581 134 0.480581C134.148 0.480581 134.275 0.559636 134.341 0.692276L135.64 3.32514C135.765 3.57936 136.007 3.75526 136.288 3.79587L139.193 4.21806C139.34 4.23944 139.454 4.33604 139.5 4.47685C139.546 4.61742 139.51 4.76303 139.404 4.86636L137.302 6.91556C137.099 7.11331 137.006 7.39806 137.054 7.67752Z" fill="#9D2929"/>
<path d="M155.74 5.21046C155.976 4.98026 156.059 4.64241 155.957 4.32835C155.855 4.01429 155.589 3.7901 155.262 3.74252L152.357 3.32033C152.233 3.30231 152.126 3.2247 152.071 3.11248L150.772 0.479619C150.626 0.183822 150.33 0 150 0C149.67 0 149.374 0.183822 149.228 0.479619L147.929 3.11248C147.874 3.2247 147.767 3.30231 147.643 3.32033L144.737 3.74276C144.411 3.7901 144.145 4.01429 144.043 4.32835C143.941 4.64241 144.024 4.98026 144.26 5.21046L146.363 7.25965C146.452 7.34712 146.493 7.47303 146.472 7.59606L145.976 10.4899C145.92 10.815 146.051 11.1372 146.318 11.3314C146.585 11.5258 146.932 11.551 147.225 11.397L149.823 10.0307C149.934 9.97253 150.066 9.97253 150.177 10.0307L152.776 11.397C152.902 11.4638 153.04 11.4967 153.177 11.4967C153.354 11.4967 153.531 11.4412 153.682 11.3314C153.949 11.1372 154.08 10.815 154.024 10.4899L153.528 7.5963C153.507 7.47303 153.548 7.34736 153.637 7.25989L155.74 5.21046ZM153.054 7.67752L153.551 10.5711C153.576 10.7167 153.519 10.8558 153.399 10.9428C153.279 11.0296 153.13 11.0401 152.999 10.9719L150.401 9.60537C150.275 9.53977 150.137 9.50661 150 9.50661C149.863 9.50661 149.725 9.53977 149.599 9.60561L147.001 10.9719C146.87 11.0401 146.721 11.0296 146.601 10.9428C146.481 10.8558 146.425 10.7169 146.45 10.5711L146.946 7.67752C146.994 7.3983 146.901 7.11331 146.698 6.9158L144.596 4.86636C144.49 4.76303 144.454 4.61742 144.5 4.47685C144.545 4.33604 144.66 4.23944 144.806 4.21806L147.712 3.79587C147.992 3.75526 148.235 3.57936 148.36 3.32514L149.659 0.692276C149.724 0.559636 149.852 0.480581 150 0.480581C150.148 0.480581 150.275 0.559636 150.341 0.692276L151.64 3.32514C151.765 3.57936 152.007 3.75526 152.288 3.79587L155.193 4.21806C155.34 4.23944 155.454 4.33604 155.5 4.47685C155.546 4.61742 155.51 4.76303 155.404 4.86636L153.302 6.91556C153.099 7.11331 153.006 7.39806 153.054 7.67752Z" fill="#9D2929"/>
</svg>
